<svg width="1910" height="634" viewBox="0 0 1910 634" fill="none" xmlns="http://www.w3.org/2000/svg">
    <path d="M648.265 517.004C738.545 545.796 887.659 660.178 976.316 628.508C1092.47 587.016 1259.4 574.761 1352.31 496.82C1497.21 375.273 1551.45 426.709 1551.45 426.709C1551.45 426.709 1605.05 399.657 1646.72 361.201C1701.65 310.503 1770.91 339.279 1770.91 339.279C1770.91 339.279 1781.76 56.7814 1910 0C1910 182.914 1910 628.508 1910 628.508C1910 628.508 904.688 628.508 860.663 628.508C1010.74 631.992 710.543 628.508 860.663 628.508C926.897 635.606 791.955 626.913 860.663 628.508C820.716 624.227 -75.1299 628.508 -75.1299 628.508L-97 339.279C-97 251.251 -44.44 116.269 69.549 194.157C156.934 253.866 156.934 404.332 156.934 404.332C156.934 404.332 263.357 347.57 385.824 426.709C508.291 505.848 526.654 517.004 526.654 517.004C526.654 517.004 542.782 483.365 648.265 517.004Z" fill="#D9D9D9" fill-opacity="0.25"/>
</svg>
