<svg width="300" height="501" viewBox="0 0 300 501" fill="none" xmlns="http://www.w3.org/2000/svg">
    <path d="M199.628 9.95077L203.697 5.51365C228.694 10.2891 244.185 10.6394 267.706 17.7421C267.706 17.7421 289.083 -4.79266 299.014 1.26099C303.844 12.1008 278.498 31.507 278.498 31.507C281.547 58.2491 279.544 72.3242 280.215 98.478L275.397 101.286L255.356 49.2256L230.9 69.2721L223.847 98.0209C219.597 79.6882 212.76 72.5873 195.356 63.8849L223.243 61.0363L246.542 38.7928L199.628 9.95077Z" fill="#EDEFF4"/>
    <path d="M89.3313 137.236C77.4702 163.782 41.328 289 41.328 289C20.8455 316.668 -101.835 500.342 -101.835 500.342C-101.835 500.342 7.34365 388.5 72.3994 289C72.3994 289 97.8641 189.187 98.2852 163.862C99.1865 109.65 207.843 82.9605 207.843 82.9605C207.843 82.9605 110.505 89.8472 89.3313 137.236Z" fill="#EDEFF4"/>
</svg>
