<svg width="168" height="22" viewBox="0 0 168 22" fill="none" xmlns="http://www.w3.org/2000/svg">
    <path d="M13.7888 16.0084L13.7879 16.0086L13.7875 16.0087C13.7875 16.0087 13.7875 16.0087 13.7882 16.0119L13.8802 17H17.1256L20.3983 21.5H15.3117L11.3732 16.2471L11.2232 16.047H10.9731H5.58373H5.08373V16.547V21.5H0.880188V0.5H13.9457L13.9457 0.499999L13.9461 0.5L13.9466 0.5H13.9466L13.9467 0.500008L13.9561 0.500151C13.9654 0.500331 13.9807 0.500722 14.0016 0.501563C14.0435 0.503246 14.1077 0.506726 14.1911 0.513914C14.358 0.528304 14.6005 0.55746 14.8932 0.616398C15.4805 0.734631 16.2588 0.97048 17.0331 1.43836C18.5496 2.35466 20.1368 4.21007 20.1368 8.08547C20.1368 11.469 18.5499 13.4317 16.9673 14.5658C16.1688 15.138 15.3675 15.5008 14.7648 15.7202C14.4642 15.8297 14.2151 15.9027 14.0432 15.948C13.9573 15.9706 13.8909 15.9863 13.8472 15.996C13.8254 16.0009 13.8092 16.0043 13.7992 16.0063L13.7888 16.0084ZM5.58373 4.38889H5.08373V4.88889V12.0342V12.5342H5.58373H13.5749V12.0342C13.5749 12.5342 13.5753 12.5342 13.5757 12.5342L13.5766 12.5342L13.5786 12.5342L13.5832 12.5341L13.5949 12.5339C13.6038 12.5336 13.6148 12.5332 13.628 12.5325C13.6542 12.531 13.6888 12.5283 13.7305 12.5233C13.8137 12.5132 13.9264 12.4939 14.0586 12.4568C14.3234 12.3823 14.6695 12.2353 15.0122 11.9464C15.7133 11.3552 16.305 10.2554 16.305 8.2735C16.305 6.46139 15.7008 5.45139 14.9922 4.91366C14.6491 4.65329 14.3054 4.52267 14.0459 4.45704C13.916 4.42417 13.8056 4.4072 13.7246 4.39841C13.684 4.39401 13.6505 4.39163 13.6252 4.39035C13.6125 4.38971 13.6019 4.38935 13.5935 4.38914L13.5825 4.38894L13.5783 4.3889L13.5765 4.38889L13.5756 4.38889C13.5753 4.38889 13.5749 4.38889 13.5749 4.88889V4.38889H5.58373Z" fill="white" stroke="white"/>
    <path d="M28.3802 17.5V18H28.8802H40.3802V21.5H23.8802V5.54469V0.500022L40.3802 0.500746V4.1219L28.8801 4.12386L28.3802 4.12395V4.62386V8.5V9H28.8802H39.3802V12.5H28.8802H28.3802V13V17.5Z" fill="white" stroke="white"/>
    <path fill-rule="evenodd" clip-rule="evenodd" d="M50.8802 0L42.8802 22H48.3802L49.8802 18H59.8802L61.3802 22H66.8802L58.8802 0H50.8802ZM55.8802 4.5H53.8802L51.3802 13.5H58.3802L55.8802 4.5Z" fill="white"/>
    <path d="M73.3323 17.5V18H73.8323L85.6105 18V21.5H69.3802V0.5L73.3323 0.5V17.5Z" fill="white" stroke="white"/>
    <path d="M92.6105 21.5H88.6105V0.5H92.6105V21.5Z" fill="white" stroke="white"/>
    <path d="M102.79 4.5V4H102.29H95.6105V0.5H114.61V4H107.931H107.431V4.5V21.5H102.79V4.5Z" fill="white" stroke="white"/>
    <path d="M126.11 14V13.8601L126.038 13.7405L117.999 0.5H122.33L127.684 9.26073L128.092 9.92888L128.526 9.27735L134.378 0.5H138.695L130.19 13.7296L130.11 13.8531V14V21.5H126.11V14Z" fill="white" stroke="white"/>
    <path d="M161.715 5.62222H155.868L160.036 0.500012H165.887L161.715 5.62222ZM154.577 6.62222L166.574 21.5H159.762L154.943 15.5469L155.348 15.0469H154.537L142.664 0.5H149.64L154.173 6.12078L153.765 6.62222H154.577ZM147.422 16.0469H153.252L148.837 21.5H142.979L147.422 16.0469Z" fill="white" stroke="white"/>
</svg>
