<svg width="32" height="36" viewBox="0 0 32 36" fill="none" xmlns="http://www.w3.org/2000/svg">
    <path d="M23.0723 9.95697V8.0284C23.0723 7.85161 22.9277 7.70697 22.7509 7.70697H7.32234C7.14555 7.70697 7.00091 7.85161 7.00091 8.0284V9.95697C7.00091 10.1338 7.14555 10.2784 7.32234 10.2784H22.7509C22.9277 10.2784 23.0723 10.1338 23.0723 9.95697ZM7.32234 13.4927C7.14555 13.4927 7.00091 13.6373 7.00091 13.8141V15.7427C7.00091 15.9195 7.14555 16.0641 7.32234 16.0641H14.7152C14.892 16.0641 15.0366 15.9195 15.0366 15.7427V13.8141C15.0366 13.6373 14.892 13.4927 14.7152 13.4927H7.32234ZM22.4295 18.1534C17.6362 18.1534 13.7509 22.0387 13.7509 26.832C13.7509 31.6253 17.6362 35.5105 22.4295 35.5105C27.2228 35.5105 31.1081 31.6253 31.1081 26.832C31.1081 22.0387 27.2228 18.1534 22.4295 18.1534ZM26.7487 31.1512C25.5956 32.3043 24.0607 32.9391 22.4295 32.9391C20.7982 32.9391 19.2634 32.3043 18.1103 31.1512C16.9572 29.998 16.3223 28.4632 16.3223 26.832C16.3223 25.2007 16.9572 23.6659 18.1103 22.5128C19.2634 21.3596 20.7982 20.7248 22.4295 20.7248C24.0607 20.7248 25.5956 21.3596 26.7487 22.5128C27.9018 23.6659 28.5366 25.2007 28.5366 26.832C28.5366 28.4632 27.9018 29.998 26.7487 31.1512ZM26.0054 23.7784H24.2255C24.121 23.7784 24.0246 23.8266 23.9643 23.911L21.413 27.4387L20.4848 26.157C20.4551 26.1156 20.4159 26.0819 20.3704 26.0588C20.325 26.0358 20.2746 26.0239 20.2237 26.0244H18.4518C18.1906 26.0244 18.038 26.3217 18.1906 26.5346L21.1558 30.6369C21.2844 30.8137 21.5456 30.8137 21.6741 30.6369L26.2625 24.2887C26.4192 24.0757 26.2665 23.7784 26.0054 23.7784ZM13.1081 31.6534H3.78663V3.36768H26.2866V17.1891C26.2866 17.3659 26.4313 17.5105 26.6081 17.5105H28.8581C29.0348 17.5105 29.1795 17.3659 29.1795 17.1891V1.76054C29.1795 1.04938 28.6049 0.474823 27.8938 0.474823H2.17948C1.46832 0.474823 0.893768 1.04938 0.893768 1.76054V33.2605C0.893768 33.9717 1.46832 34.5463 2.17948 34.5463H13.1081C13.2848 34.5463 13.4295 34.4016 13.4295 34.2248V31.9748C13.4295 31.798 13.2848 31.6534 13.1081 31.6534Z" fill="#9EB941"/>
</svg>
