<svg width="30" height="36" viewBox="0 0 30 36" fill="none" xmlns="http://www.w3.org/2000/svg">
    <path d="M28.7653 9.02411L20.1189 0.377679C19.8778 0.136607 19.5524 0 19.2109 0H2.14301C1.43185 0 0.8573 0.574554 0.8573 1.28571V34.7143C0.8573 35.4254 1.43185 36 2.14301 36H27.8573C28.5685 36 29.143 35.4254 29.143 34.7143V9.93616C29.143 9.59464 29.0064 9.26518 28.7653 9.02411ZM26.1778 10.5268H18.6162V2.96518L26.1778 10.5268ZM26.2502 33.1071H3.75016V2.89286H15.8841V11.5714C15.8841 12.019 16.0619 12.4482 16.3783 12.7647C16.6948 13.0811 17.124 13.2589 17.5716 13.2589H26.2502V33.1071ZM16.2859 16.3929C16.2859 16.2161 16.1412 16.0714 15.9644 16.0714H14.0359C13.8591 16.0714 13.7144 16.2161 13.7144 16.3929V20.7321H9.37516C9.19837 20.7321 9.05373 20.8768 9.05373 21.0536V22.9821C9.05373 23.1589 9.19837 23.3036 9.37516 23.3036H13.7144V27.6429C13.7144 27.8196 13.8591 27.9643 14.0359 27.9643H15.9644C16.1412 27.9643 16.2859 27.8196 16.2859 27.6429V23.3036H20.6252C20.8019 23.3036 20.9466 23.1589 20.9466 22.9821V21.0536C20.9466 20.8768 20.8019 20.7321 20.6252 20.7321H16.2859V16.3929Z" fill="#9EB941"/>
</svg>
