<svg width="168" height="22" viewBox="0 0 168 22" fill="none" xmlns="http://www.w3.org/2000/svg">
    <path d="M13.4086 16.0084L13.4077 16.0086L13.4073 16.0087C13.4073 16.0087 13.4073 16.0087 13.408 16.0119L13.5 17H16.7454L20.0181 21.5H14.9315L10.993 16.2471L10.843 16.047H10.5929H5.20354H4.70354V16.547V21.5H0.5V0.5H13.5655L13.5655 0.499999L13.5659 0.5L13.5664 0.5H13.5664L13.5665 0.500008L13.5759 0.500151C13.5852 0.500331 13.6005 0.500722 13.6214 0.501563C13.6633 0.503246 13.7275 0.506726 13.8109 0.513914C13.9778 0.528304 14.2203 0.55746 14.513 0.616398C15.1003 0.734631 15.8786 0.97048 16.6529 1.43836C18.1694 2.35466 19.7566 4.21007 19.7566 8.08547C19.7566 11.469 18.1697 13.4317 16.5871 14.5658C15.7886 15.138 14.9873 15.5008 14.3847 15.7202C14.084 15.8297 13.8349 15.9027 13.663 15.948C13.5771 15.9706 13.5107 15.9863 13.467 15.996C13.4452 16.0009 13.429 16.0043 13.419 16.0063L13.4086 16.0084ZM5.20354 4.38889H4.70354V4.88889V12.0342V12.5342H5.20354H13.1947V12.0342C13.1947 12.5342 13.1951 12.5342 13.1955 12.5342L13.1964 12.5342L13.1984 12.5342L13.203 12.5341L13.2147 12.5339C13.2236 12.5336 13.2347 12.5332 13.2478 12.5325C13.2741 12.531 13.3086 12.5283 13.3503 12.5233C13.4335 12.5132 13.5462 12.4939 13.6784 12.4568C13.9432 12.3823 14.2893 12.2353 14.632 11.9464C15.3331 11.3552 15.9248 10.2554 15.9248 8.2735C15.9248 6.46139 15.3206 5.45139 14.612 4.91366C14.2689 4.65329 13.9252 4.52267 13.6658 4.45704C13.5358 4.42417 13.4255 4.4072 13.3444 4.39841C13.3038 4.39401 13.2703 4.39163 13.245 4.39035C13.2324 4.38971 13.2217 4.38935 13.2133 4.38914L13.2023 4.38894L13.1981 4.3889L13.1963 4.38889L13.1955 4.38889C13.1951 4.38889 13.1947 4.38889 13.1947 4.88889V4.38889H5.20354Z" fill="black" stroke="black"/>
    <path d="M28.5 9H39V12.5H28.5H28V13V17.5V18H28.5H40V21.5H23.5V5.54469V0.500022L40 0.500746V4.1219L28.4999 4.12386L28 4.12395V4.62386V8.5V9H28.5Z" fill="black" stroke="black"/>
    <path fill-rule="evenodd" clip-rule="evenodd" d="M50.5 0L42.5 22H48L49.5 18H59.5L61 22H66.5L58.5 0H50.5ZM55.5 4.5H53.5L51 13.5H58L55.5 4.5Z" fill="black"/>
    <path d="M72.9521 17.5V18H73.4521L85.2303 18V21.5H69V0.5L72.9521 0.5V17.5Z" fill="black" stroke="black"/>
    <path d="M92.2305 21.5H88.2305V0.5H92.2305V21.5Z" fill="black" stroke="black"/>
    <path d="M107.551 4H107.051V4.5V21.5H102.41V4.5V4H101.91H95.2305V0.5H114.23V4H107.551Z" fill="black" stroke="black"/>
    <path d="M138.315 0.5L129.81 13.7296L129.73 13.8531V14V21.5H125.73V14V13.8601L125.658 13.7405L117.619 0.5H121.95L127.304 9.26073L127.712 9.92888L128.146 9.27735L133.998 0.5H138.315Z" fill="black" stroke="black"/>
    <path d="M149.26 0.5L154.047 6.43608L154.047 6.43609L166.194 21.5H159.382L154.308 15.2323L154.307 15.2308L142.284 0.5H149.26ZM152.872 16.0469L148.457 21.5H142.599L147.042 16.0469H152.872ZM161.335 5.62222H155.488L159.656 0.500012H165.507L161.335 5.62222Z" fill="#9EB941" stroke="#9EB941"/>
</svg>
