<svg width="135" height="130" viewBox="0 0 135 130" fill="none" xmlns="http://www.w3.org/2000/svg">
    <path d="M0.786832 15.4707L2.01873 13.5483C11.3474 13.9237 17.1641 13.8866 26.0853 15.2323C26.0853 15.2323 33.9805 5.20751 36.3551 6.43548C37.9585 8.40407 29.9465 18.5771 29.9465 18.5771C32.5223 28.5735 34.4024 33.148 36.0833 43.0577L34.4461 44.5324L23.1576 27.1972L15.3896 36.2324L16.4108 44.4759L15.6065 45.4971L12.0818 40.1469L10.704 41.15L9.14842 39.8024L9.61113 38.0067L4.09547 35.5176L4.8189 34.4341L12.361 33.6089L19.3873 23.7369L0.786832 15.4707Z" fill="#9EB941"/>
    <path fill-rule="evenodd" clip-rule="evenodd" d="M134.714 65.5668C134.848 29.9447 106.079 0.947746 70.4572 0.800309C52.5327 0.726127 36.2885 7.9706 24.5548 19.7256C20.4871 23.7263 16.9886 28.2921 14.1903 33.2947C8.83614 42.6512 5.75854 53.4811 5.71509 65.0329C5.58108 100.655 34.3498 129.652 69.9719 129.799C105.594 129.947 134.58 101.189 134.714 65.5668ZM14.1903 33.2947C9.40936 41.8416 6.67243 51.6634 6.6331 62.1193C6.50811 95.3454 33.6708 122.393 67.3027 122.533C100.935 122.672 128.3 95.8494 128.425 62.6233C128.55 29.3972 101.387 2.34926 67.7553 2.21007C50.9017 2.14032 35.6218 8.84117 24.5548 19.7256C20.5317 23.7561 17.0388 28.3169 14.1903 33.2947Z" fill="#9EB941" fill-opacity="0.5"/>
</svg>
